HIERARCHY
ROOT Hips
{
  OFFSET 265.287 66.7526 -254.649
  CHANNELS 6 Xposition Yposition Zposition Zrotation Xrotation Yrotation
  JOINT LeftUpLeg
  {
    OFFSET 8.64259 1.95398 -2.38835
    CHANNELS 3 Zrotation Xrotation Yrotation
    JOINT LeftLeg
    {
      OFFSET 43.7702 0 0
      CHANNELS 3 Zrotation Xrotation Yrotation
      JOINT LeftFoot
      {
        OFFSET 40.6238 0 0
        CHANNELS 3 Zrotation Xrotation Yrotation
        JOINT LeftToeBase
        {
          OFFSET 12.7242 0 0
          CHANNELS 3 Zrotation Xrotation Yrotation
          End Site
          {
            OFFSET 0 0 0
          }
        }
      }
    }
  }
  JOINT RightUpLeg
  {
    OFFSET -8.2249 1.95398 -2.59336
    CHANNELS 3 Zrotation Xrotation Yrotation
    JOINT RightLeg
    {
      OFFSET 43.5653 0 0
      CHANNELS 3 Zrotation Xrotation Yrotation
      JOINT RightFoot
      {
        OFFSET 40.6238 0 0
        CHANNELS 3 Zrotation Xrotation Yrotation
        JOINT RightToeBase
        {
          OFFSET 12.7242 0 0
          CHANNELS 3 Zrotation Xrotation Yrotation
          End Site
          {
            OFFSET 0 0 0
          }
        }
      }
    }
  }
  JOINT Spine
  {
    OFFSET 0.165834 0.87714 6.61349
    CHANNELS 3 Zrotation Xrotation Yrotation
    JOINT Spine1
    {
      OFFSET 7.38963 1.71661e-005 0
      CHANNELS 3 Zrotation Xrotation Yrotation
      JOINT Spine2
      {
        OFFSET 11.9445 1.14441e-005 0
        CHANNELS 3 Zrotation Xrotation Yrotation
        JOINT Spine3
        {
          OFFSET 14.7254 4.19617e-005 0
          CHANNELS 3 Zrotation Xrotation Yrotation
          JOINT Spine4
          {
            OFFSET 10.9679 0 0
            CHANNELS 3 Zrotation Xrotation Yrotation
            JOINT RightShoulder
            {
              OFFSET 2.46616 -1.6653 3.69651
              CHANNELS 3 Zrotation Xrotation Yrotation
              JOINT RightArm
              {
                OFFSET 13.0012 0 0
                CHANNELS 3 Zrotation Xrotation Yrotation
                JOINT RightForeArm
                {
                  OFFSET 28.7848 1.52588e-005 0
                  CHANNELS 3 Zrotation Xrotation Yrotation
                  JOINT RightHand
                  {
                    OFFSET 26.5688 1.52588e-005 0
                    CHANNELS 3 Zrotation Xrotation Yrotation
                    End Site
                    {
                      OFFSET 0 0 0
                    }
                  }
                }
              }
            }
            JOINT LeftShoulder
            {
              OFFSET 2.38034 -1.29275 -3.7523
              CHANNELS 3 Zrotation Xrotation Yrotation
              JOINT LeftArm
              {
                OFFSET 16.3182 6.10351e-005 0
                CHANNELS 3 Zrotation Xrotation Yrotation
                JOINT LeftForeArm
                {
                  OFFSET 27.0901 0 0
                  CHANNELS 3 Zrotation Xrotation Yrotation
                  JOINT LeftHand
                  {
                    OFFSET 24.5451 1.52588e-005 0
                    CHANNELS 3 Zrotation Xrotation Yrotation
                    End Site
                    {
                      OFFSET 0 0 0
                    }
                  }
                }
              }
            }
            JOINT Neck
            {
              OFFSET 5.0226 -0.0266342 0
              CHANNELS 3 Zrotation Xrotation Yrotation
              JOINT Head
              {
                OFFSET 6.69364 2.86102e-005 0
                CHANNELS 3 Zrotation Xrotation Yrotation
                End Site
                {
                  OFFSET 0 0 0
                }
              }
            }
          }
        }
      }
    }
  }
}
MOTION
Frames:	17
Frame Time:	0.0416667
-281.881 67.3578 303.97 88.0949 25.7834 84.7905 -158.994 54.113 86.0665 -79.4289 42.12 -6.01412 94.6876 20.0085 23.1666 112.084 -65.1559 -47.3498 138.181 -21.6937 6.01187 -18.0832 8.45038 65.3944 -6.26377 56.955 8.61778 -21.7591 -59.4187 100.74 3.45655 3.63686 -89.2162 19.6477 7.18229 0.080472 7.99666 7.17881 -0.237383 -14.6873 6.82446 2.24556 5.32535 6.82443 2.24555 121.449 -7.87531 -25.1728 114.467 -58.1811 83.7396 -49.6876 19.3465 -75.7783 -12.9973 4.8129 -47.6772 -61.6052 -26.8967 129.698 -36.0906 56.2154 36.3819 36.7808 8.35005 -72.0737 29.0052 -25.0854 -80.9456 67.8284 -5.48477 13.9138 -115.904 -2.11353 -11.5884 
-282.29 67.3054 304.35 87.9407 25.7949 85.0991 -159.102 54.741 86.2348 -79.9274 42.006 -5.69629 94.9315 19.8899 22.9947 108.073 -65.7623 -52.3231 138.519 -21.6809 7.61341 -13.1079 6.47648 63.6515 -3.19602 58.6706 4.24319 0.699492 -53.3609 121.294 3.45051 3.62807 -89.2267 19.6659 7.16452 0.0610708 8.01474 7.16026 -0.255975 -14.6687 6.81333 2.22166 5.34396 6.81337 2.22167 121.527 -7.9844 -25.1081 114.882 -57.7765 84.8804 -50.8436 19.8465 -75.7111 -13.3229 5.04474 -48.4801 -61.5903 -26.7984 129.774 -34.6842 55.9292 34.57 36.3791 10.2374 -71.0455 29.4621 -25.6728 -81.4344 68.05 -5.50173 13.9384 -116.029 -1.9707 -11.7393 
-283.437 67.1504 305.456 87.4971 25.8389 85.9821 -159.551 56.5551 86.8434 -81.3106 41.6822 -4.84967 95.5612 19.5068 22.5208 97.6688 -66.4477 -64.8782 139.058 -22.0404 12.3445 4.6394 -2.62464 60.7588 5.60411 57.768 -8.13961 37.9006 -5.70834 134.857 3.43121 3.60339 -89.2556 19.7164 7.11085 0.00874713 8.06497 7.10431 -0.305839 -14.6168 6.7779 2.15547 5.39582 6.77789 2.15547 121.758 -8.30636 -24.9191 115.933 -56.5826 87.9837 -54.3757 21.2253 -75.338 -14.3076 5.73872 -50.6153 -61.5448 -26.5227 129.996 -30.4498 54.7082 29.1133 35.0323 16.1859 -68.0541 30.8571 -27.5002 -82.9094 68.6861 -5.55858 14.0044 -116.377 -1.5632 -12.1735 
-285.144 66.8684 307.146 86.7972 25.9442 87.3729 -160.65 59.4164 88.1017 -83.4569 41.1494 -3.68484 96.4297 18.905 21.8272 85.635 -65.8549 -79.1136 139.03 -23.9398 20.9479 31.3585 -21.8598 60.823 1.43866 42.8273 -9.07694 96.7469 33.6212 73.7454 3.39546 3.56693 -89.2985 19.7908 7.01687 -0.0654938 8.13883 7.00713 -0.375801 -14.5399 6.71059 2.05612 5.47275 6.7106 2.05611 122.138 -8.83854 -24.612 117.191 -54.631 92.3862 -60.747 23.1327 -74.0968 -16.058 6.93466 -53.4246 -61.4642 -26.1071 130.357 -23.3696 51.024 19.8654 32.2415 27.5465 -63.1148 33.3021 -30.8346 -85.42 69.6925 -5.67115 14.0975 -116.905 -0.926476 -12.8615 
-287.396 66.4498 309.152 85.8825 26.1454 89.2036 -162.597 63.1662 90.1193 -86.1859 40.4772 -2.42981 97.2391 18.2548 21.0476 76.098 -64.2061 -90.3737 142.265 -23.5058 35.7718 39.1861 -51.3026 58.1043 1.43346 27.8179 1.95057 125.97 11.3631 30.8899 3.33848 3.52448 -89.3509 19.8768 6.87604 -0.150147 8.22407 6.86277 -0.454092 -14.4498 6.60183 1.93259 5.56287 6.60184 1.93258 122.672 -9.58354 -24.1903 118.16 -52.0267 97.3002 -70.9934 24.7688 -71.0067 -18.8343 8.67469 -55.8695 -61.3403 -25.5955 130.856 -14.6557 40.16 7.52226 27.247 48.3148 -56.0629 36.8137 -35.9729 -88.9811 71.0275 -5.86075 14.2011 -117.563 -0.0973324 -13.7748 
-290.128 65.9499 311.409 84.804 26.4616 91.4011 -166.121 67.562 93.4723 -89.1434 39.6338 -1.25186 97.7454 17.5283 20.258 69.6841 -62.2635 -97.9964 140.109 -29.4702 44.2867 53.5815 -69.5692 54.3543 -0.352388 24.1433 21.0608 136.081 4.88233 22.5706 3.25739 3.48377 -89.4089 19.9585 6.68522 -0.234907 8.30477 6.66837 -0.530248 -14.3623 6.44538 1.79373 5.65037 6.4454 1.79372 123.365 -10.5456 -23.657 118.448 -49.0023 102.005 -86.5155 24.4036 -64.9819 -23.0168 10.8214 -56.3751 -61.1643 -25.0324 131.492 -9.70453 6.91144 -5.20486 104.721 84.1231 -129.163 40.9455 -42.5537 -93.1995 72.6512 -6.14958 14.2995 -118.302 0.889299 -14.887 
-293.331 65.1696 313.986 83.6212 26.8891 93.8753 -172.995 72.6465 99.9669 -92.391 38.7558 -0.274883 97.8084 16.6616 19.5025 65.5052 -60.4406 -102.983 143.313 -30.7777 49.2849 59.282 -74.6026 60.2388 1.36335 19.2833 28.6306 143.358 10.5459 26.4807 3.15293 3.454 -89.4682 20.0172 6.44817 -0.309829 8.36221 6.42829 -0.59453 -14.2963 6.24197 1.65023 5.71632 6.24196 1.65023 124.223 -11.727 -23.0149 117.874 -45.9099 105.99 -107.67 18.9878 -56.3423 -28.5735 12.4868 -52.7165 -60.9276 -24.4609 132.263 -91.1809 -77.2802 -85.9811 -166.22 -3.33747 177.81 35.6569 -44.1767 -103.804 74.5225 -6.55836 14.379 -119.075 2.00184 -16.1736 
-298.29 62.2142 317.987 82.3971 27.4057 96.5123 163.928 80.649 122.302 -97.1816 37.9364 0.443975 95.933 14.5539 18.9072 62.7008 -58.8336 -106.313 146.724 -32.624 54.5239 59.587 -78.0982 60.1522 3.51482 17.0641 34.1092 144.195 25.896 38.7659 3.02938 3.44447 -89.5229 20.034 6.17691 -0.364149 8.3776 6.15487 -0.636706 -14.2712 5.9997 1.51601 5.74141 5.9997 1.516 125.247 -13.1241 -22.2685 116.459 -43.1315 108.988 -130.841 6.85152 -48.9223 -33.0778 11.7105 -44.01 -60.6234 -23.9217 133.164 163.161 9.1972 -162.681 -113.032 -65.8807 -113.46 13.0837 -28.7825 -128.111 76.595 -7.10373 14.429 -119.84 3.21382 -17.612 
-304.08 58.3388 322.639 81.1839 27.9799 99.1928 84.7003 82.1472 -159.592 -101.216 37.2843 0.90655 92.1648 11.2512 18.3305 60.7266 -57.4197 -108.616 150.605 -34.5251 59.8961 52.9346 -80.1986 53.3576 5.64568 15.8615 37.6474 119.558 46.187 73.4016 2.89312 3.46221 -89.566 19.9951 5.88839 -0.386816 8.33737 5.86564 -0.6465 -14.3013 5.73146 1.40679 5.71131 5.73146 1.40678 126.435 -14.7222 -21.4248 114.356 -40.9444 110.941 -150.315 -7.11479 -46.1229 -32.9596 8.49422 -33.9089 -60.2491 -23.4475 134.18 122.086 34.2407 -136.98 -119.177 -72.3487 -72.7907 -1.49775 -2.19568 -139.25 78.8152 -7.79489 14.4433 -120.554 4.50675 -19.1821 
-309.971 54.5503 327.303 80.0165 28.5837 101.813 51.6975 73.7582 -127.994 -103.274 36.6102 1.16495 87.1184 7.27634 17.2767 59.2747 -56.1586 -110.256 155.267 -35.5802 65.6385 37.6289 -80.8128 39.505 7.77502 14.734 39.2616 61.3996 29.7078 132.469 2.75192 3.50993 -89.5909 19.895 5.59991 -0.367922 8.23605 5.57826 -0.614805 -14.3927 5.45078 1.33726 5.61993 5.45076 1.33726 127.775 -16.4925 -20.4947 111.764 -39.4581 111.926 -163.962 -17.2466 -46.3962 -29.5808 5.38012 -25.8447 -59.8085 -23.0586 135.29 95.4387 23.5275 -121.037 129.148 -82.0552 -152.745 -10.0263 17.8157 -138.269 81.1216 -8.63194 14.4207 -121.182 5.8688 -20.8666 
-315.892 50.9502 331.915 78.9145 29.1967 104.289 42.4621 64.7726 -120.335 -103.29 35.0819 1.28617 81.0755 3.06378 14.742 58.1685 -55.0174 -111.448 160.374 -35.5846 71.4926 19.6204 -79.8103 24.4148 9.87482 13.4655 39.4906 34.163 -16.8261 142.847 2.61164 3.58634 -89.5915 19.7367 5.32711 -0.299513 8.0766 5.30875 -0.534356 -14.5429 5.17014 1.31977 5.46973 5.17015 1.31976 129.244 -18.3883 -19.4924 108.878 -38.6271 112.074 -172.761 -23.0842 -47.364 -25.9277 3.30742 -19.8797 -59.3137 -22.7623 136.461 88.5257 5.90585 -117.604 90.4074 -74.5004 -169.246 -14.4484 25.9531 -135.198 83.4436 -9.60554 14.3641 -121.69 7.28973 -22.6471 
-321.768 47.6377 336.422 77.8861 29.8033 106.561 38.2871 56.9917 -117.789 -101.424 34.692 1.3889 74.218 -1.1227 12.6729 57.3032 -53.9755 -112.324 165.203 -35.4231 76.9608 7.25195 -77.9044 14.1983 11.5456 12.6258 39.6969 7.36757 -46.2128 122.857 2.47798 3.68651 -89.5631 19.5301 5.08291 -0.175997 7.8691 5.07025 -0.400122 -14.7421 4.90024 1.36354 5.27052 4.90023 1.36353 130.804 -20.3439 -18.4371 105.891 -38.2959 111.549 -178.356 -26.1331 -48.1664 -22.998 1.98654 -15.2424 -58.7855 -22.5514 137.65 94.0163 -11.1522 -113.61 111.024 -75.1003 -132.497 -15.3039 26.8054 -133.634 85.703 -10.6953 14.2793 -122.046 8.75461 -24.5013 
-327.535 44.6571 340.796 76.9322 30.394 108.592 35.9245 50.8844 -116.992 -97.8862 34.3795 1.5335 67.0108 -4.96902 10.0644 56.6162 -53.0243 -112.964 169.609 -35.1389 81.8638 0.195448 -75.6742 8.49598 12.762 12.1703 40.0284 -23.9035 -53.4928 91.1367 2.3548 3.8035 -89.5033 19.2893 4.87606 0.00457726 7.62756 4.87152 -0.21056 -14.9764 4.64876 1.47305 5.03629 4.64875 1.47305 132.41 -22.2877 -17.3502 102.973 -38.2771 110.528 178.044 -27.5466 -48.7235 -20.7775 1.10687 -11.4652 -58.2497 -22.408 138.813 110.046 -24.4045 -102.367 159.082 -67.3937 -74.173 -14.2678 24.3419 -132.961 87.8263 -11.8676 14.1729 -122.227 10.2402 -26.3994 
-333.122 42.0005 345.014 76.0502 30.9651 110.362 34.4868 46.5436 -116.971 -92.9612 34.1752 1.774 59.7052 -8.31632 7.05299 56.0684 -52.1636 -113.426 173.445 -34.8738 86.2123 -4.08313 -73.602 4.62748 13.6305 12.1556 40.6189 -43.9045 -50.3332 68.9888 2.24421 3.93058 -89.4129 19.0278 4.70957 0.239127 7.36545 4.71553 0.0311483 -15.232 4.41955 1.64625 4.7807 4.41954 1.64625 134.02 -24.162 -16.2544 100.237 -38.4236 109.16 175.72 -27.9714 -49.1212 -19.109 0.498807 -8.32708 -57.729 -22.3131 139.911 133.808 -29.0657 -83.8156 178.742 -47.4993 -49.2961 -12.6207 20.6891 -132.236 89.7583 -13.0745 14.0478 -122.218 11.7175 -28.3011 
-338.432 39.6232 349.033 75.2364 31.5148 111.859 33.643 43.8404 -117.322 -86.9631 34.0719 2.13042 52.4806 -11.1048 3.72817 55.6337 -51.3981 -113.749 176.634 -34.6893 89.9366 -6.59899 -71.8514 1.70979 14.1706 12.491 41.4303 -53.6779 -45.3777 56.86 2.14614 4.06216 -89.296 18.757 4.58091 0.518745 7.0941 4.5993 0.316187 -15.4973 4.21287 1.87386 4.51535 4.21288 1.87386 135.6 -25.9335 -15.1746 97.7087 -38.6529 107.542 174.231 -27.7711 -49.4494 -17.8621 0.066331 -5.71007 -57.2408 -22.2491 140.922 156.243 -23.8508 -65.9673 -173.742 -25.645 -40.3495 -10.9931 17.0083 -131.106 91.4624 -14.2542 13.9004 -122.024 13.1553 -30.1523 
-343.32 37.4716 352.773 74.4873 32.0414 113.08 33.2354 42.5302 -117.83 -80.2307 34.0724 2.571 45.4947 -13.326 0.206846 55.2932 -50.7356 -113.966 179.198 -34.6191 92.7578 -6.43973 -70.3339 0.989295 14.1739 12.8985 42.2951 -58.6846 -40.9213 49.7252 2.05923 4.19359 -89.16 18.4861 4.48342 0.829929 6.8227 4.51561 0.631397 -15.7628 4.02642 2.14097 4.24982 4.02643 2.14097 137.127 -27.5944 -14.1374 95.3356 -38.936 105.711 173.307 -27.1485 -49.7689 -16.9444 -0.249127 -3.54394 -56.7991 -22.1973 141.829 171.475 -13.6422 -54.2963 -169.164 -6.55719 -36.9508 -9.5727 13.7769 -129.652 92.9154 -15.3386 13.7189 -121.665 14.5212 -31.8861 
-347.602 35.5296 356.106 73.8 32.5446 114.018 33.1377 42.2975 -118.349 -73.1915 34.1801 3.01019 38.9554 -14.9883 -3.32584 55.0333 -50.186 -114.106 -178.882 -34.6256 94.8674 -5.57289 -69.1219 0.771617 13.9488 13.3446 43.0976 -61.5494 -37.2319 45.0463 1.98161 4.32141 -89.0124 18.2221 4.40922 1.1584 6.55832 4.45592 0.962852 -16.0213 3.85703 2.43157 3.99139 3.85705 2.43158 138.589 -29.1587 -13.1671 93.0064 -39.2738 103.649 172.791 -26.2031 -50.1133 -16.3015 -0.482268 -1.78862 -56.417 -22.1368 142.622 -179.383 -3.15878 -47.6164 -165.368 8.43057 -36.1059 -8.33102 11.0187 -128.054 94.1034 -16.2681 13.485 -121.168 15.7836 -33.4318 
